<svg xmlns="http://www.w3.org/2000/svg" width="1920" height="1080" viewBox="0 0 1920 1080" preserveAspectRatio="xMidYMid slice">
  <defs>
    <linearGradient id="gradient" x1="0%" y1="0%" x2="100%" y2="100%">
      <stop offset="0%" stop-color="#0B1220"/>
      <stop offset="100%" stop-color="#121A2A"/>
    </linearGradient>
    <radialGradient id="glow" cx="50%" cy="50%" r="60%">
      <stop offset="0%" stop-color="rgba(17,191,166,0.35)"/>
      <stop offset="70%" stop-color="rgba(17,191,166,0.08)"/>
      <stop offset="100%" stop-color="rgba(17,191,166,0)"/>
    </radialGradient>
  </defs>
  <rect width="100%" height="100%" fill="url(#gradient)"/>
  <g opacity="0.6">
    <circle cx="960" cy="540" r="420" fill="url(#glow)"/>
  </g>
  <g stroke="#1E2A3C" stroke-width="1.2" opacity="0.45">
    <path d="M120 160 L320 260 L520 180 L720 280 L920 200 L1120 300 L1320 220 L1520 320 L1720 240"/>
    <path d="M120 460 L320 560 L520 480 L720 580 L920 500 L1120 600 L1320 520 L1520 620 L1720 540"/>
    <path d="M120 760 L320 860 L520 780 L720 880 L920 800 L1120 900 L1320 820 L1520 920 L1720 840"/>
    <path d="M220 90 L220 930"/>
    <path d="M420 150 L420 990"/>
    <path d="M620 70 L620 910"/>
    <path d="M820 130 L820 970"/>
    <path d="M1020 90 L1020 930"/>
    <path d="M1220 150 L1220 990"/>
    <path d="M1420 70 L1420 910"/>
    <path d="M1620 130 L1620 970"/>
  </g>
  <g fill="#11BFA6">
    <circle cx="220" cy="160" r="6"/>
    <circle cx="420" cy="260" r="6"/>
    <circle cx="620" cy="180" r="6"/>
    <circle cx="820" cy="280" r="6"/>
    <circle cx="1020" cy="200" r="6"/>
    <circle cx="1220" cy="300" r="6"/>
    <circle cx="1420" cy="220" r="6"/>
    <circle cx="1620" cy="320" r="6"/>
    <circle cx="320" cy="560" r="6"/>
    <circle cx="520" cy="480" r="6"/>
    <circle cx="720" cy="580" r="6"/>
    <circle cx="920" cy="500" r="6"/>
    <circle cx="1120" cy="600" r="6"/>
    <circle cx="1320" cy="520" r="6"/>
    <circle cx="1520" cy="620" r="6"/>
    <circle cx="1720" cy="540" r="6"/>
    <circle cx="220" cy="860" r="6"/>
    <circle cx="420" cy="780" r="6"/>
    <circle cx="620" cy="880" r="6"/>
    <circle cx="820" cy="800" r="6"/>
    <circle cx="1020" cy="900" r="6"/>
    <circle cx="1220" cy="820" r="6"/>
    <circle cx="1420" cy="920" r="6"/>
    <circle cx="1620" cy="840" r="6"/>
  </g>
</svg>

